<mxfile host="app.diagrams.net" modified="2024-04-28T16:38:02.616Z" agent="Mozilla/5.0 (Macintosh; Intel Mac OS X 10_15_7) AppleWebKit/537.36 (KHTML, like Gecko) Chrome/124.0.0.0 Safari/537.36" version="24.3.1" etag="7vDRsOsuwj7Zjge38OyA" type="github">
  <diagram name="ページ1" id="chXOTAfTKkLmFm23G31K">
    <mxGraphModel>
      <root>
        <mxCell id="0" />
        <mxCell id="1" parent="0" />
      </root>
    </mxGraphModel>
  </diagram>
</mxfile>
